<mxfile host="app.diagrams.net" modified="2024-01-01T03:19:35.876Z" agent="Mozilla/5.0 (Windows NT 10.0; Win64; x64) AppleWebKit/537.36 (KHTML, like Gecko) Chrome/120.0.0.0 Safari/537.36" etag="UGzRbylq_JISDc6QrMo4" version="22.1.16" type="device">
  <diagram name="Page-1" id="03W_pAsv6lf8uqsK6ZqH">
    <mxGraphModel dx="1000" dy="530" grid="1" gridSize="10" guides="1" tooltips="1" connect="1" arrows="1" fold="1" page="1" pageScale="1" pageWidth="850" pageHeight="1100" math="0" shadow="0">
      <root>
        <mxCell id="0" />
        <mxCell id="1" parent="0" />
        <mxCell id="rZajL1bF2dqXuodXDo2b-122" value="" style="rounded=0;whiteSpace=wrap;html=1;strokeColor=none;movable=0;resizable=0;rotatable=0;deletable=0;editable=0;locked=1;connectable=0;" parent="1" vertex="1">
          <mxGeometry x="10" width="850" height="1100" as="geometry" />
        </mxCell>
        <mxCell id="rZajL1bF2dqXuodXDo2b-44" value="" style="rounded=1;whiteSpace=wrap;html=1;fillColor=none;dashed=1;dashPattern=8 8;" parent="1" vertex="1">
          <mxGeometry x="285" y="360" width="230" height="170" as="geometry" />
        </mxCell>
        <mxCell id="rZajL1bF2dqXuodXDo2b-43" value="" style="rounded=1;whiteSpace=wrap;html=1;fillColor=none;dashed=1;dashPattern=8 8;" parent="1" vertex="1">
          <mxGeometry x="247.5" y="550" width="305" height="180" as="geometry" />
        </mxCell>
        <mxCell id="rZajL1bF2dqXuodXDo2b-32" value="layer_dense" style="rounded=0;whiteSpace=wrap;html=1;" parent="1" vertex="1">
          <mxGeometry x="380" y="580" width="160" height="30" as="geometry" />
        </mxCell>
        <mxCell id="rZajL1bF2dqXuodXDo2b-33" value="conv_2d_transpose" style="rounded=0;whiteSpace=wrap;html=1;" parent="1" vertex="1">
          <mxGeometry x="340" y="630" width="120" height="30" as="geometry" />
        </mxCell>
        <mxCell id="rZajL1bF2dqXuodXDo2b-34" value="last_call" style="rounded=0;whiteSpace=wrap;html=1;" parent="1" vertex="1">
          <mxGeometry x="265" y="580" width="90" height="30" as="geometry" />
        </mxCell>
        <mxCell id="rZajL1bF2dqXuodXDo2b-37" value="Body" style="text;html=1;strokeColor=none;fillColor=none;align=center;verticalAlign=middle;whiteSpace=wrap;rounded=0;rotation=-90;" parent="1" vertex="1">
          <mxGeometry x="240" y="630" width="60" height="30" as="geometry" />
        </mxCell>
        <mxCell id="rZajL1bF2dqXuodXDo2b-39" style="edgeStyle=orthogonalEdgeStyle;rounded=0;orthogonalLoop=1;jettySize=auto;html=1;exitX=0.5;exitY=1;exitDx=0;exitDy=0;" parent="1" edge="1">
          <mxGeometry relative="1" as="geometry">
            <mxPoint x="400" y="840" as="sourcePoint" />
            <mxPoint x="400" y="840" as="targetPoint" />
          </mxGeometry>
        </mxCell>
        <mxCell id="rZajL1bF2dqXuodXDo2b-24" value="concatenate" style="rounded=0;whiteSpace=wrap;html=1;" parent="1" vertex="1">
          <mxGeometry x="340" y="380" width="120" height="30" as="geometry" />
        </mxCell>
        <mxCell id="rZajL1bF2dqXuodXDo2b-29" value="Neck" style="text;html=1;strokeColor=none;fillColor=none;align=center;verticalAlign=middle;whiteSpace=wrap;rounded=0;rotation=-90;" parent="1" vertex="1">
          <mxGeometry x="280" y="430" width="60" height="30" as="geometry" />
        </mxCell>
        <mxCell id="rZajL1bF2dqXuodXDo2b-73" value="" style="group" parent="1" vertex="1" connectable="0">
          <mxGeometry x="130" y="40" width="140" height="290" as="geometry" />
        </mxCell>
        <mxCell id="rZajL1bF2dqXuodXDo2b-18" value="conv_2d" style="rounded=0;whiteSpace=wrap;html=1;" parent="rZajL1bF2dqXuodXDo2b-73" vertex="1">
          <mxGeometry x="10" y="160" width="120" height="30" as="geometry" />
        </mxCell>
        <mxCell id="rZajL1bF2dqXuodXDo2b-19" value="max_pooling_2d" style="rounded=0;whiteSpace=wrap;html=1;" parent="rZajL1bF2dqXuodXDo2b-73" vertex="1">
          <mxGeometry x="10" y="210" width="120" height="30" as="geometry" />
        </mxCell>
        <mxCell id="rZajL1bF2dqXuodXDo2b-20" value="flatten" style="rounded=0;whiteSpace=wrap;html=1;" parent="rZajL1bF2dqXuodXDo2b-73" vertex="1">
          <mxGeometry x="10" y="260" width="120" height="30" as="geometry" />
        </mxCell>
        <mxCell id="rZajL1bF2dqXuodXDo2b-21" value="Call" style="swimlane;whiteSpace=wrap;html=1;fillStyle=solid;" parent="rZajL1bF2dqXuodXDo2b-73" vertex="1">
          <mxGeometry width="140" height="140" as="geometry" />
        </mxCell>
        <mxCell id="rZajL1bF2dqXuodXDo2b-92" value="last_call" style="rounded=0;whiteSpace=wrap;html=1;" parent="rZajL1bF2dqXuodXDo2b-21" vertex="1">
          <mxGeometry y="110" width="140" height="30" as="geometry" />
        </mxCell>
        <mxCell id="rZajL1bF2dqXuodXDo2b-74" value="" style="group" parent="1" vertex="1" connectable="0">
          <mxGeometry x="540" y="40" width="140" height="570" as="geometry" />
        </mxCell>
        <mxCell id="rZajL1bF2dqXuodXDo2b-75" value="conv_2d" style="rounded=0;whiteSpace=wrap;html=1;" parent="rZajL1bF2dqXuodXDo2b-74" vertex="1">
          <mxGeometry x="10" y="160" width="120" height="30" as="geometry" />
        </mxCell>
        <mxCell id="rZajL1bF2dqXuodXDo2b-76" value="max_pooling_2d" style="rounded=0;whiteSpace=wrap;html=1;" parent="rZajL1bF2dqXuodXDo2b-74" vertex="1">
          <mxGeometry x="10" y="210" width="120" height="30" as="geometry" />
        </mxCell>
        <mxCell id="rZajL1bF2dqXuodXDo2b-77" value="flatten" style="rounded=0;whiteSpace=wrap;html=1;" parent="rZajL1bF2dqXuodXDo2b-74" vertex="1">
          <mxGeometry x="10" y="260" width="120" height="30" as="geometry" />
        </mxCell>
        <mxCell id="rZajL1bF2dqXuodXDo2b-78" value="Partial Response" style="swimlane;whiteSpace=wrap;html=1;fillStyle=solid;" parent="rZajL1bF2dqXuodXDo2b-74" vertex="1">
          <mxGeometry width="140" height="140" as="geometry" />
        </mxCell>
        <mxCell id="rZajL1bF2dqXuodXDo2b-93" value="" style="endArrow=classic;html=1;rounded=0;exitX=0;exitY=0.5;exitDx=0;exitDy=0;entryX=0;entryY=0.5;entryDx=0;entryDy=0;" parent="1" target="rZajL1bF2dqXuodXDo2b-34" edge="1">
          <mxGeometry width="50" height="50" relative="1" as="geometry">
            <mxPoint x="130" y="110" as="sourcePoint" />
            <mxPoint x="265" y="540" as="targetPoint" />
            <Array as="points">
              <mxPoint x="90" y="110" />
              <mxPoint x="90" y="595" />
            </Array>
          </mxGeometry>
        </mxCell>
        <mxCell id="rZajL1bF2dqXuodXDo2b-97" value="" style="group" parent="1" vertex="1" connectable="0">
          <mxGeometry x="340" y="30" width="140" height="300" as="geometry" />
        </mxCell>
        <mxCell id="rZajL1bF2dqXuodXDo2b-98" value="conv_2d" style="rounded=0;whiteSpace=wrap;html=1;" parent="rZajL1bF2dqXuodXDo2b-97" vertex="1">
          <mxGeometry x="10" y="160" width="120" height="30" as="geometry" />
        </mxCell>
        <mxCell id="rZajL1bF2dqXuodXDo2b-99" value="max_pooling_2d" style="rounded=0;whiteSpace=wrap;html=1;" parent="rZajL1bF2dqXuodXDo2b-97" vertex="1">
          <mxGeometry x="10" y="210" width="120" height="30" as="geometry" />
        </mxCell>
        <mxCell id="rZajL1bF2dqXuodXDo2b-100" value="flatten" style="rounded=0;whiteSpace=wrap;html=1;" parent="rZajL1bF2dqXuodXDo2b-97" vertex="1">
          <mxGeometry x="10" y="260" width="120" height="30" as="geometry" />
        </mxCell>
        <mxCell id="rZajL1bF2dqXuodXDo2b-101" value="Context 2" style="swimlane;whiteSpace=wrap;html=1;fillStyle=solid;" parent="rZajL1bF2dqXuodXDo2b-97" vertex="1">
          <mxGeometry width="140" height="140" as="geometry" />
        </mxCell>
        <mxCell id="rZajL1bF2dqXuodXDo2b-107" value="" style="group" parent="rZajL1bF2dqXuodXDo2b-101" vertex="1" connectable="0">
          <mxGeometry x="-35" y="10" width="140" height="290" as="geometry" />
        </mxCell>
        <mxCell id="rZajL1bF2dqXuodXDo2b-108" value="conv_2d" style="rounded=0;whiteSpace=wrap;html=1;" parent="rZajL1bF2dqXuodXDo2b-107" vertex="1">
          <mxGeometry x="10" y="160" width="120" height="30" as="geometry" />
        </mxCell>
        <mxCell id="rZajL1bF2dqXuodXDo2b-109" value="max_pooling_2d" style="rounded=0;whiteSpace=wrap;html=1;" parent="rZajL1bF2dqXuodXDo2b-107" vertex="1">
          <mxGeometry x="10" y="210" width="120" height="30" as="geometry" />
        </mxCell>
        <mxCell id="rZajL1bF2dqXuodXDo2b-110" value="flatten" style="rounded=0;whiteSpace=wrap;html=1;" parent="rZajL1bF2dqXuodXDo2b-107" vertex="1">
          <mxGeometry x="10" y="260" width="120" height="30" as="geometry" />
        </mxCell>
        <mxCell id="rZajL1bF2dqXuodXDo2b-111" value="Context 1" style="swimlane;whiteSpace=wrap;html=1;fillStyle=solid;" parent="rZajL1bF2dqXuodXDo2b-107" vertex="1">
          <mxGeometry width="140" height="140" as="geometry" />
        </mxCell>
        <mxCell id="rZajL1bF2dqXuodXDo2b-113" value="" style="rounded=0;whiteSpace=wrap;html=1;" parent="rZajL1bF2dqXuodXDo2b-111" vertex="1">
          <mxGeometry y="20" width="140" height="120" as="geometry" />
        </mxCell>
        <mxCell id="rZajL1bF2dqXuodXDo2b-114" value="" style="endArrow=classic;html=1;rounded=0;exitX=0.5;exitY=1;exitDx=0;exitDy=0;entryX=0.5;entryY=0;entryDx=0;entryDy=0;" parent="1" source="rZajL1bF2dqXuodXDo2b-20" target="rZajL1bF2dqXuodXDo2b-24" edge="1">
          <mxGeometry width="50" height="50" relative="1" as="geometry">
            <mxPoint x="260" y="400" as="sourcePoint" />
            <mxPoint x="230" y="400" as="targetPoint" />
            <Array as="points">
              <mxPoint x="200" y="350" />
              <mxPoint x="400" y="350" />
            </Array>
          </mxGeometry>
        </mxCell>
        <mxCell id="rZajL1bF2dqXuodXDo2b-117" value="" style="endArrow=none;html=1;rounded=0;entryX=0.5;entryY=1;entryDx=0;entryDy=0;" parent="1" target="rZajL1bF2dqXuodXDo2b-110" edge="1">
          <mxGeometry width="50" height="50" relative="1" as="geometry">
            <mxPoint x="375" y="350" as="sourcePoint" />
            <mxPoint x="430" y="320" as="targetPoint" />
          </mxGeometry>
        </mxCell>
        <mxCell id="rZajL1bF2dqXuodXDo2b-118" value="" style="endArrow=none;html=1;rounded=0;entryX=0.845;entryY=1.027;entryDx=0;entryDy=0;entryPerimeter=0;" parent="1" target="rZajL1bF2dqXuodXDo2b-110" edge="1">
          <mxGeometry width="50" height="50" relative="1" as="geometry">
            <mxPoint x="416" y="350" as="sourcePoint" />
            <mxPoint x="270" y="410" as="targetPoint" />
          </mxGeometry>
        </mxCell>
        <mxCell id="rZajL1bF2dqXuodXDo2b-119" value="" style="endArrow=classic;html=1;rounded=0;exitX=0.5;exitY=1;exitDx=0;exitDy=0;entryX=0.5;entryY=0;entryDx=0;entryDy=0;" parent="1" source="IXutRxGmGKz-HMedxfZf-2" target="rZajL1bF2dqXuodXDo2b-32" edge="1">
          <mxGeometry width="50" height="50" relative="1" as="geometry">
            <mxPoint x="400" y="560" as="sourcePoint" />
            <mxPoint x="290" y="590" as="targetPoint" />
            <Array as="points">
              <mxPoint x="400" y="560" />
              <mxPoint x="460" y="560" />
            </Array>
          </mxGeometry>
        </mxCell>
        <mxCell id="rZajL1bF2dqXuodXDo2b-120" value="" style="endArrow=classic;html=1;rounded=0;exitX=0.5;exitY=1;exitDx=0;exitDy=0;" parent="1" edge="1">
          <mxGeometry width="50" height="50" relative="1" as="geometry">
            <mxPoint x="400" y="710" as="sourcePoint" />
            <mxPoint x="400" y="750" as="targetPoint" />
          </mxGeometry>
        </mxCell>
        <mxCell id="IXutRxGmGKz-HMedxfZf-2" value="layer_dense" style="rounded=0;whiteSpace=wrap;html=1;" vertex="1" parent="1">
          <mxGeometry x="340" y="480" width="120" height="30" as="geometry" />
        </mxCell>
        <mxCell id="IXutRxGmGKz-HMedxfZf-4" value="layer_dense" style="rounded=0;whiteSpace=wrap;html=1;" vertex="1" parent="1">
          <mxGeometry x="330" y="430" width="140" height="30" as="geometry" />
        </mxCell>
        <mxCell id="IXutRxGmGKz-HMedxfZf-15" value="conv_2d_transpose" style="rounded=0;whiteSpace=wrap;html=1;" vertex="1" parent="1">
          <mxGeometry x="340" y="680" width="120" height="30" as="geometry" />
        </mxCell>
        <mxCell id="IXutRxGmGKz-HMedxfZf-26" value="" style="group" vertex="1" connectable="0" parent="1">
          <mxGeometry x="350" y="750" width="140" height="300" as="geometry" />
        </mxCell>
        <mxCell id="IXutRxGmGKz-HMedxfZf-30" value="Eventuality 2" style="swimlane;whiteSpace=wrap;html=1;fillStyle=solid;" vertex="1" parent="IXutRxGmGKz-HMedxfZf-26">
          <mxGeometry width="140" height="140" as="geometry" />
        </mxCell>
        <mxCell id="rZajL1bF2dqXuodXDo2b-115" value="" style="endArrow=classic;html=1;rounded=0;exitX=0.5;exitY=1;exitDx=0;exitDy=0;" parent="1" edge="1">
          <mxGeometry width="50" height="50" relative="1" as="geometry">
            <mxPoint x="610" y="330" as="sourcePoint" />
            <mxPoint x="400" y="380" as="targetPoint" />
            <Array as="points">
              <mxPoint x="610" y="350" />
              <mxPoint x="400" y="350" />
            </Array>
          </mxGeometry>
        </mxCell>
        <mxCell id="IXutRxGmGKz-HMedxfZf-31" value="" style="group" vertex="1" connectable="0" parent="1">
          <mxGeometry x="320" y="760" width="140" height="290" as="geometry" />
        </mxCell>
        <mxCell id="IXutRxGmGKz-HMedxfZf-35" value="Eventuality 1" style="swimlane;whiteSpace=wrap;html=1;fillStyle=solid;" vertex="1" parent="IXutRxGmGKz-HMedxfZf-31">
          <mxGeometry width="140" height="140" as="geometry" />
        </mxCell>
        <mxCell id="IXutRxGmGKz-HMedxfZf-36" value="" style="rounded=0;whiteSpace=wrap;html=1;" vertex="1" parent="IXutRxGmGKz-HMedxfZf-35">
          <mxGeometry y="20" width="140" height="120" as="geometry" />
        </mxCell>
      </root>
    </mxGraphModel>
  </diagram>
</mxfile>
